<?xml version="1.0" encoding="UTF-8"?>
<svg width="100" height="100" viewBox="0 0 100 100" xmlns="http://www.w3.org/2000/svg">
    <path fill="#0A66C2" d="M92.86,0H7.12C3.18,0,0,3.18,0,7.12v85.74C0,96.82,3.18,100,7.12,100h85.74c3.94,0,7.14-3.18,7.14-7.14V7.12
    C100,3.18,96.82,0,92.86,0z M30.57,85.71H15.71V37.86h14.86V85.71z M23.14,31.43c-4.82,0-8.71-3.89-8.71-8.71
    c0-4.82,3.89-8.71,8.71-8.71c4.82,0,8.71,3.89,8.71,8.71C31.86,27.54,27.96,31.43,23.14,31.43z M85.71,85.71H70.86V62.5
    c0-5.54-0.11-12.68-7.71-12.68c-7.71,0-8.93,6.04-8.93,12.32v23.57H39.29V37.86h14.29v6.54h0.18c1.96-3.75,6.79-7.71,14.11-7.71
    c15.11,0,17.86,9.96,17.86,22.86V85.71z"/>
</svg> 