<?xml version="1.0" encoding="UTF-8"?>
<svg width="100" height="100" viewBox="0 0 100 100" xmlns="http://www.w3.org/2000/svg">
    <path fill="#25D366" d="M50,0C22.4,0,0,22.4,0,50c0,8.9,2.3,17.2,6.4,24.4L0,100l26.2-6.2c7,3.8,14.9,5.9,23.8,5.9
    c27.6,0,50-22.4,50-50S77.6,0,50,0z M50,91.7c-8.1,0-15.7-2.4-22-6.6l-15.3,3.6l3.7-15C12.6,66.9,10,58.7,10,50
    C10,27.9,27.9,10,50,10s40,17.9,40,40S72.1,91.7,50,91.7z"/>
    <path fill="#25D366" d="M73.9,60.7c-0.8-0.4-4.9-2.4-5.7-2.7c-0.8-0.3-1.3-0.4-1.9,0.4c-0.6,0.8-2.2,2.7-2.7,3.3
    c-0.5,0.6-1,0.6-1.8,0.2c-0.8-0.4-3.5-1.3-6.7-4.1c-2.5-2.2-4.1-4.9-4.6-5.7c-0.5-0.8,0-1.2,0.4-1.6c0.4-0.4,0.8-0.9,1.2-1.4
    c0.4-0.5,0.5-0.8,0.8-1.3c0.3-0.5,0.1-1-0.1-1.4c-0.2-0.4-1.9-4.5-2.6-6.2c-0.7-1.6-1.4-1.4-1.9-1.4c-0.5,0-1.1,0-1.6,0
    c-0.6,0-1.5,0.2-2.3,1c-0.8,0.8-3,2.9-3,7.1c0,4.2,3,8.2,3.4,8.8c0.4,0.6,6.1,9.3,14.8,13c8.7,3.7,8.7,2.5,10.3,2.3
    c1.6-0.2,5.1-2.1,5.8-4.1c0.7-2,0.7-3.7,0.5-4C75.2,61.3,74.7,61.1,73.9,60.7z"/>
</svg> 